grf
version=1
nRows=42
nColumns=28
inDegrees=yes
endheader
time	ground_force_1_vx	ground_force_1_vy	ground_force_1_vz	ground_force_1_px	ground_force_1_py	ground_force_1_pz	ground_moment_1_mx	ground_moment_1_my	ground_moment_1_mz	ground_force_2_vx	ground_force_2_vy	ground_force_2_vz	ground_force_2_px	ground_force_2_py	ground_force_2_pz	ground_moment_2_mx	ground_moment_2_my	ground_moment_2_mz	ground_force_3_vx	ground_force_3_vy	ground_force_3_vz	ground_force_3_px	ground_force_3_py	ground_force_3_pz	ground_moment_3_mx	ground_moment_3_my	ground_moment_3_mz
2.643333	5.309295	402.463451	29.224222	-0.389391	0.001022	-0.387162	0.004528	-1.538568	-0.007480	0.000000	0.000000	0.000000	0.000000	0.000000	0.000000	0.000000	0.000000	0.000000	0.000000	0.000000	0.000000	0.000000	0.000000	0.000000	0.000000	0.000000	0.000000
2.644000	5.453914	403.038110	29.213825	-0.389019	0.001024	-0.387407	0.004533	-1.540454	-0.007489	0.000000	0.000000	0.000000	0.000000	0.000000	0.000000	0.000000	0.000000	0.000000	0.000000	0.000000	0.000000	0.000000	0.000000	0.000000	0.000000	0.000000	0.000000
2.644667	5.602648	403.630754	29.201480	-0.388648	0.001026	-0.387651	0.004538	-1.541978	-0.007496	0.000000	0.000000	0.000000	0.000000	0.000000	0.000000	0.000000	0.000000	0.000000	0.000000	0.000000	0.000000	0.000000	0.000000	0.000000	0.000000	0.000000	0.000000
2.645333	5.755426	404.241126	29.187486	-0.388278	0.001029	-0.387894	0.004541	-1.543133	-0.007502	0.000000	0.000000	0.000000	0.000000	0.000000	0.000000	0.000000	0.000000	0.000000	0.000000	0.000000	0.000000	0.000000	0.000000	0.000000	0.000000	0.000000	0.000000
2.646000	5.912203	404.868814	29.172142	-0.387910	0.001031	-0.388137	0.004544	-1.543918	-0.007506	0.000000	0.000000	0.000000	0.000000	0.000000	0.000000	0.000000	0.000000	0.000000	0.000000	0.000000	0.000000	0.000000	0.000000	0.000000	0.000000	0.000000	0.000000
2.646667	6.072959	405.513332	29.155741	-0.387542	0.001033	-0.388379	0.004545	-1.544331	-0.007508	0.000000	0.000000	0.000000	0.000000	0.000000	0.000000	0.000000	0.000000	0.000000	0.000000	0.000000	0.000000	0.000000	0.000000	0.000000	0.000000	0.000000	0.000000
2.647333	6.237676	406.174150	29.138561	-0.387176	0.001035	-0.388621	0.004545	-1.544372	-0.007508	0.000000	0.000000	0.000000	0.000000	0.000000	0.000000	0.000000	0.000000	0.000000	0.000000	0.000000	0.000000	0.000000	0.000000	0.000000	0.000000	0.000000	0.000000
2.648000	6.406331	406.850700	29.120878	-0.386811	0.001038	-0.388862	0.004544	-1.544044	-0.007506	0.000000	0.000000	0.000000	0.000000	0.000000	0.000000	0.000000	0.000000	0.000000	0.000000	0.000000	0.000000	0.000000	0.000000	0.000000	0.000000	0.000000	0.000000
2.648667	6.578908	407.542393	29.102958	-0.386447	0.001040	-0.389103	0.004542	-1.543342	-0.007503	0.000000	0.000000	0.000000	0.000000	0.000000	0.000000	0.000000	0.000000	0.000000	0.000000	0.000000	0.000000	0.000000	0.000000	0.000000	0.000000	0.000000	0.000000
2.649333	6.755404	408.248614	29.085058	-0.386084	0.001042	-0.389343	0.004539	-1.542258	-0.007498	0.000000	0.000000	0.000000	0.000000	0.000000	0.000000	0.000000	0.000000	0.000000	0.000000	0.000000	0.000000	0.000000	0.000000	0.000000	0.000000	0.000000	0.000000
2.650000	6.935826	408.968747	29.067425	-0.385721	0.001044	-0.389583	0.004534	-1.540784	-0.007490	0.000000	0.000000	0.000000	0.000000	0.000000	0.000000	0.000000	0.000000	0.000000	0.000000	0.000000	0.000000	0.000000	0.000000	0.000000	0.000000	0.000000	0.000000
2.650667	7.120193	409.702197	29.050305	-0.385359	0.001046	-0.389822	0.004529	-1.538911	-0.007481	0.000000	0.000000	0.000000	0.000000	0.000000	0.000000	0.000000	0.000000	0.000000	0.000000	0.000000	0.000000	0.000000	0.000000	0.000000	0.000000	0.000000	0.000000
2.651333	7.308532	410.448423	29.033933	-0.384998	0.001049	-0.390061	0.004522	-1.536640	-0.007470	0.000000	0.000000	0.000000	0.000000	0.000000	0.000000	0.000000	0.000000	0.000000	0.000000	0.000000	0.000000	0.000000	0.000000	0.000000	0.000000	0.000000	0.000000
2.652000	7.500874	411.206947	29.018547	-0.384638	0.001051	-0.390299	0.004514	-1.533968	-0.007457	0.000000	0.000000	0.000000	0.000000	0.000000	0.000000	0.000000	0.000000	0.000000	0.000000	0.000000	0.000000	0.000000	0.000000	0.000000	0.000000	0.000000	0.000000
2.652667	7.697260	411.977320	29.004404	-0.384278	0.001053	-0.390537	0.004505	-1.530899	-0.007442	0.000000	0.000000	0.000000	0.000000	0.000000	0.000000	0.000000	0.000000	0.000000	0.000000	0.000000	0.000000	0.000000	0.000000	0.000000	0.000000	0.000000	0.000000
2.653333	7.897733	412.759107	28.991796	-0.383920	0.001055	-0.390774	0.004495	-1.527438	-0.007426	0.000000	0.000000	0.000000	0.000000	0.000000	0.000000	0.000000	0.000000	0.000000	0.000000	0.000000	0.000000	0.000000	0.000000	0.000000	0.000000	0.000000	0.000000
2.654000	8.102343	413.551906	28.981029	-0.383562	0.001058	-0.391011	0.004484	-1.523595	-0.007407	0.000000	0.000000	0.000000	0.000000	0.000000	0.000000	0.000000	0.000000	0.000000	0.000000	0.000000	0.000000	0.000000	0.000000	0.000000	0.000000	0.000000	0.000000
2.654667	8.311131	414.355353	28.972395	-0.383205	0.001060	-0.391247	0.004471	-1.519373	-0.007386	0.000000	0.000000	0.000000	0.000000	0.000000	0.000000	0.000000	0.000000	0.000000	0.000000	0.000000	0.000000	0.000000	0.000000	0.000000	0.000000	0.000000	0.000000
2.655333	8.524142	415.169090	28.966154	-0.382848	0.001062	-0.391483	0.004458	-1.514771	-0.007364	0.000000	0.000000	0.000000	0.000000	0.000000	0.000000	0.000000	0.000000	0.000000	0.000000	0.000000	0.000000	0.000000	0.000000	0.000000	0.000000	0.000000	0.000000
2.656000	8.741439	415.992757	28.962530	-0.382493	0.001064	-0.391719	0.004443	-1.509776	-0.007340	0.000000	0.000000	0.000000	0.000000	0.000000	0.000000	0.000000	0.000000	0.000000	0.000000	0.000000	0.000000	0.000000	0.000000	0.000000	0.000000	0.000000	0.000000
2.656667	8.963088	416.826003	28.961728	-0.382139	0.001066	-0.391954	0.004427	-1.504368	-0.007313	0.000000	0.000000	0.000000	0.000000	0.000000	0.000000	0.000000	0.000000	0.000000	0.000000	0.000000	0.000000	0.000000	0.000000	0.000000	0.000000	0.000000	0.000000
2.657333	9.189149	417.668488	28.963946	-0.381786	0.001068	-0.392189	0.004410	-1.498526	-0.007285	0.000000	0.000000	0.000000	0.000000	0.000000	0.000000	0.000000	0.000000	0.000000	0.000000	0.000000	0.000000	0.000000	0.000000	0.000000	0.000000	0.000000	0.000000
2.658000	9.419660	418.519885	28.969376	-0.381435	0.001071	-0.392423	0.004392	-1.492234	-0.007254	0.000000	0.000000	0.000000	0.000000	0.000000	0.000000	0.000000	0.000000	0.000000	0.000000	0.000000	0.000000	0.000000	0.000000	0.000000	0.000000	0.000000	0.000000
2.658667	9.654643	419.379895	28.978196	-0.381084	0.001073	-0.392657	0.004372	-1.485480	-0.007222	0.000000	0.000000	0.000000	0.000000	0.000000	0.000000	0.000000	0.000000	0.000000	0.000000	0.000000	0.000000	0.000000	0.000000	0.000000	0.000000	0.000000	0.000000
2.659333	9.894099	420.248245	28.990570	-0.380735	0.001075	-0.392890	0.004350	-1.478251	-0.007186	0.000000	0.000000	0.000000	0.000000	0.000000	0.000000	0.000000	0.000000	0.000000	0.000000	0.000000	0.000000	0.000000	0.000000	0.000000	0.000000	0.000000	0.000000
2.660000	10.138021	421.124652	29.006666	-0.380388	0.001077	-0.393123	0.004328	-1.470539	-0.007149	0.000000	0.000000	0.000000	0.000000	0.000000	0.000000	0.000000	0.000000	0.000000	0.000000	0.000000	0.000000	0.000000	0.000000	0.000000	0.000000	0.000000	0.000000
2.660667	10.386393	422.008794	29.026660	-0.380041	0.001079	-0.393355	0.004304	-1.462333	-0.007109	0.000000	0.000000	0.000000	0.000000	0.000000	0.000000	0.000000	0.000000	0.000000	0.000000	0.000000	0.000000	0.000000	0.000000	0.000000	0.000000	0.000000	0.000000
2.661333	10.639193	422.900339	29.050728	-0.379697	0.001081	-0.393586	0.004278	-1.453621	-0.007067	0.000000	0.000000	0.000000	0.000000	0.000000	0.000000	0.000000	0.000000	0.000000	0.000000	0.000000	0.000000	0.000000	0.000000	0.000000	0.000000	0.000000	0.000000
2.662000	10.896389	423.799019	29.079045	-0.379354	0.001084	-0.393817	0.004251	-1.444395	-0.007022	0.000000	0.000000	0.000000	0.000000	0.000000	0.000000	0.000000	0.000000	0.000000	0.000000	0.000000	0.000000	0.000000	0.000000	0.000000	0.000000	0.000000	0.000000
2.662667	11.157950	424.704669	29.111781	-0.379012	0.001086	-0.394047	0.004222	-1.434647	-0.006974	0.000000	0.000000	0.000000	0.000000	0.000000	0.000000	0.000000	0.000000	0.000000	0.000000	0.000000	0.000000	0.000000	0.000000	0.000000	0.000000	0.000000	0.000000
2.663333	11.423843	425.617237	29.149102	-0.378672	0.001088	-0.394276	0.004192	-1.424373	-0.006924	0.000000	0.000000	0.000000	0.000000	0.000000	0.000000	0.000000	0.000000	0.000000	0.000000	0.000000	0.000000	0.000000	0.000000	0.000000	0.000000	0.000000	0.000000
2.664000	11.694041	426.536784	29.191162	-0.378334	0.001090	-0.394505	0.004160	-1.413573	-0.006872	0.000000	0.000000	0.000000	0.000000	0.000000	0.000000	0.000000	0.000000	0.000000	0.000000	0.000000	0.000000	0.000000	0.000000	0.000000	0.000000	0.000000	0.000000
2.664667	11.968508	427.463435	29.238099	-0.377998	0.001092	-0.394733	0.004127	-1.402256	-0.006817	0.000000	0.000000	0.000000	0.000000	0.000000	0.000000	0.000000	0.000000	0.000000	0.000000	0.000000	0.000000	0.000000	0.000000	0.000000	0.000000	0.000000	0.000000
2.665333	12.247212	428.397323	29.290038	-0.377663	0.001094	-0.394959	0.004092	-1.390435	-0.006759	0.000000	0.000000	0.000000	0.000000	0.000000	0.000000	0.000000	0.000000	0.000000	0.000000	0.000000	0.000000	0.000000	0.000000	0.000000	0.000000	0.000000	0.000000
2.666000	12.530111	429.338570	29.347093	-0.377330	0.001096	-0.395185	0.004056	-1.378132	-0.006700	0.000000	0.000000	0.000000	0.000000	0.000000	0.000000	0.000000	0.000000	0.000000	0.000000	0.000000	0.000000	0.000000	0.000000	0.000000	0.000000	0.000000	0.000000
2.666667	12.817149	430.287344	29.409337	-0.377000	0.001098	-0.395409	0.004018	-1.365370	-0.006638	0.000000	0.000000	0.000000	0.000000	0.000000	0.000000	0.000000	0.000000	0.000000	0.000000	0.000000	0.000000	0.000000	0.000000	0.000000	0.000000	0.000000	0.000000
2.667333	13.108250	431.243909	29.476783	-0.376672	0.001100	-0.395633	0.003979	-1.352177	-0.006573	0.000000	0.000000	0.000000	0.000000	0.000000	0.000000	0.000000	0.000000	0.000000	0.000000	0.000000	0.000000	0.000000	0.000000	0.000000	0.000000	0.000000	0.000000
2.668000	13.403334	432.208597	29.549392	-0.376346	0.001102	-0.395855	0.003939	-1.338588	-0.006507	0.000000	0.000000	0.000000	0.000000	0.000000	0.000000	0.000000	0.000000	0.000000	0.000000	0.000000	0.000000	0.000000	0.000000	0.000000	0.000000	0.000000	0.000000
2.668667	13.702338	433.181789	29.627099	-0.376023	0.001104	-0.396076	0.003898	-1.324638	-0.006440	0.000000	0.000000	0.000000	0.000000	0.000000	0.000000	0.000000	0.000000	0.000000	0.000000	0.000000	0.000000	0.000000	0.000000	0.000000	0.000000	0.000000	0.000000
2.669333	14.005207	434.163919	29.709816	-0.375702	0.001106	-0.396295	0.003856	-1.310361	-0.006370	0.000000	0.000000	0.000000	0.000000	0.000000	0.000000	0.000000	0.000000	0.000000	0.000000	0.000000	0.000000	0.000000	0.000000	0.000000	0.000000	0.000000	0.000000
2.670000	14.311891	435.155399	29.797423	-0.375384	0.001108	-0.396514	0.003813	-1.295795	-0.006299	0.000000	0.000000	0.000000	0.000000	0.000000	0.000000	0.000000	0.000000	0.000000	0.000000	0.000000	0.000000	0.000000	0.000000	0.000000	0.000000	0.000000	0.000000
2.670667	14.622348	436.156434	29.889779	-0.375069	0.001110	-0.396730	0.003770	-1.280979	-0.006227	0.000000	0.000000	0.000000	0.000000	0.000000	0.000000	0.000000	0.000000	0.000000	0.000000	0.000000	0.000000	0.000000	0.000000	0.000000	0.000000	0.000000	0.000000
